<svg xmlns="http://www.w3.org/2000/svg" width="92.467" height="90.66" viewBox="0 0 92.467 90.66">
  <g id="corner-detail" transform="translate(92.467 90.66) rotate(180)">
    <g id="Grupo_78" data-name="Grupo 78">
      <g id="Grupo_77" data-name="Grupo 77">
        <g id="Grupo_62" data-name="Grupo 62">
          <path id="Caminho_110" data-name="Caminho 110" d="M6.175,0,0,10.692H12.349Z" fill="#ff3e88"/>
        </g>
        <g id="Grupo_63" data-name="Grupo 63" transform="translate(0 20.03)">
          <path id="Caminho_111" data-name="Caminho 111" d="M6.175,13.3,0,23.992H12.349Z" transform="translate(0 -13.3)" fill="#ff3e88"/>
        </g>
        <g id="Grupo_64" data-name="Grupo 64" transform="translate(0 39.909)">
          <path id="Caminho_112" data-name="Caminho 112" d="M6.175,26.5,0,37.343H12.349Z" transform="translate(0 -26.5)" fill="#ff3e88"/>
        </g>
        <g id="Grupo_65" data-name="Grupo 65" transform="translate(20.03 40.059)">
          <path id="Caminho_113" data-name="Caminho 113" d="M25.649,37.292,19.475,26.6,13.3,37.292Z" transform="translate(-13.3 -26.6)" fill="#ff3e88"/>
        </g>
        <g id="Grupo_66" data-name="Grupo 66" transform="translate(39.909 40.059)">
          <path id="Caminho_114" data-name="Caminho 114" d="M32.675,26.6,26.5,37.292H38.849Z" transform="translate(-26.5 -26.6)" fill="#ff3e88"/>
        </g>
        <g id="Grupo_67" data-name="Grupo 67" transform="translate(40.059)">
          <path id="Caminho_115" data-name="Caminho 115" d="M32.775,0,26.6,10.692H38.949Z" transform="translate(-26.6)" fill="#ff3e88"/>
        </g>
        <g id="Grupo_68" data-name="Grupo 68" transform="translate(20.03)">
          <path id="Caminho_116" data-name="Caminho 116" d="M25.649,10.692,19.475,0,13.3,10.692Z" transform="translate(-13.3)" fill="#ff3e88"/>
        </g>
        <g id="Grupo_69" data-name="Grupo 69" transform="translate(40.059 20.331)">
          <path id="Caminho_117" data-name="Caminho 117" d="M32.775,13.5,26.6,24.192H38.949Z" transform="translate(-26.6 -13.5)" fill="#ff3e88"/>
        </g>
        <g id="Grupo_70" data-name="Grupo 70" transform="translate(20.03 20.331)">
          <path id="Caminho_118" data-name="Caminho 118" d="M25.649,24.192,19.475,13.5,13.3,24.192Z" transform="translate(-13.3 -13.5)" fill="#ff3e88"/>
        </g>
        <g id="Grupo_71" data-name="Grupo 71" transform="translate(40.059)">
          <path id="Caminho_119" data-name="Caminho 119" d="M32.775,0,26.6,10.692H38.949Z" transform="translate(-26.6)" fill="#ff3e88"/>
        </g>
        <g id="Grupo_72" data-name="Grupo 72" transform="translate(40.059 20.03)">
          <path id="Caminho_120" data-name="Caminho 120" d="M32.775,13.3,26.6,23.992H38.949Z" transform="translate(-26.6 -13.3)" fill="#ff3e88"/>
        </g>
        <g id="Grupo_73" data-name="Grupo 73" transform="translate(40.059 39.909)">
          <path id="Caminho_121" data-name="Caminho 121" d="M32.775,26.5,26.6,37.343H38.949Z" transform="translate(-26.6 -26.5)" fill="#ff3e88"/>
        </g>
        <g id="Grupo_74" data-name="Grupo 74" transform="translate(80.118)">
          <path id="Caminho_122" data-name="Caminho 122" d="M59.375,0,53.2,10.692H65.549Z" transform="translate(-53.2)" fill="#ff3e88"/>
        </g>
        <g id="Grupo_75" data-name="Grupo 75" transform="translate(60.089)">
          <path id="Caminho_123" data-name="Caminho 123" d="M52.249,10.692,46.075,0,39.9,10.692Z" transform="translate(-39.9)" fill="#ff3e88"/>
        </g>
        <g id="Grupo_76" data-name="Grupo 76" transform="translate(60.089 20.331)">
          <path id="Caminho_124" data-name="Caminho 124" d="M52.249,24.192,46.075,13.5,39.9,24.192Z" transform="translate(-39.9 -13.5)" fill="#ff3e88"/>
        </g>
      </g>
    </g>
    <g id="Grupo_87" data-name="Grupo 87" transform="translate(0 40.059)">
      <g id="Grupo_86" data-name="Grupo 86">
        <g id="Grupo_79" data-name="Grupo 79">
          <path id="Caminho_125" data-name="Caminho 125" d="M6.175,26.6,0,37.292H12.349Z" transform="translate(0 -26.6)" fill="#ff3e88"/>
        </g>
        <g id="Grupo_80" data-name="Grupo 80" transform="translate(0 19.879)">
          <path id="Caminho_126" data-name="Caminho 126" d="M6.175,39.8,0,50.492H12.349Z" transform="translate(0 -39.8)" fill="#ff3e88"/>
        </g>
        <g id="Grupo_81" data-name="Grupo 81" transform="translate(0 39.909)">
          <path id="Caminho_127" data-name="Caminho 127" d="M6.175,53.1,0,63.792H12.349Z" transform="translate(0 -53.1)" fill="#ff3e88"/>
        </g>
        <g id="Grupo_82" data-name="Grupo 82" transform="translate(40.059)">
          <path id="Caminho_128" data-name="Caminho 128" d="M32.775,26.6,26.6,37.292H38.949Z" transform="translate(-26.6 -26.6)" fill="#ff3e88"/>
        </g>
        <g id="Grupo_83" data-name="Grupo 83" transform="translate(20.03)">
          <path id="Caminho_129" data-name="Caminho 129" d="M25.649,37.292,19.475,26.6,13.3,37.292Z" transform="translate(-13.3 -26.6)" fill="#ff3e88"/>
        </g>
        <g id="Grupo_84" data-name="Grupo 84" transform="translate(20.03 20.18)">
          <path id="Caminho_130" data-name="Caminho 130" d="M25.649,50.692,19.475,40,13.3,50.692Z" transform="translate(-13.3 -40)" fill="#ff3e88"/>
        </g>
        <g id="Grupo_85" data-name="Grupo 85" transform="translate(40.059)">
          <path id="Caminho_131" data-name="Caminho 131" d="M32.775,26.6,26.6,37.292H38.949Z" transform="translate(-26.6 -26.6)" fill="#ff3e88"/>
        </g>
      </g>
    </g>
  </g>
</svg>
