<svg xmlns="http://www.w3.org/2000/svg" width="306.841" height="68.853" viewBox="0 0 306.841 68.853">
  <g id="logo_hub" transform="translate(-255.5 -239.6)">
    <g id="Grupo_10" data-name="Grupo 10" transform="translate(255.5 266.702)">
      <g id="Grupo_1" data-name="Grupo 1" transform="translate(0 11.683)">
        <path id="Caminho_1" data-name="Caminho 1" d="M277.028,326.765c0,4.685-4.211,8.125-10.438,8.125-5.812,0-9.726-2.669-11.09-6.345l2.491-1.423c1.067,3.084,4.211,5.041,8.6,5.041,4.092,0,7.532-1.779,7.532-5.4,0-7.769-17.673-3.321-17.673-13.64,0-4.507,3.973-8.125,9.9-8.125,4.744,0,8.362,2.254,9.9,5.693l-2.431,1.364c-1.245-2.965-4.27-4.329-7.472-4.329-3.8,0-7,1.957-7,5.4C259.355,320.834,277.028,316.268,277.028,326.765Z" transform="translate(-255.5 -305)" fill="#ff3e88"/>
      </g>
      <g id="Grupo_2" data-name="Grupo 2" transform="translate(24.671 11.683)">
        <path id="Caminho_2" data-name="Caminho 2" d="M321.771,305v29.237h-2.906v-5.575c-2.194,4.329-5.93,6.168-10.438,6.168-6.939,0-11.327-4.626-11.327-11.683V305h2.965v18.147c0,5.4,3.084,8.9,8.6,8.9,5.753,0,10.2-3.736,10.2-11.624V305Z" transform="translate(-297.1 -305)" fill="#ff3e88"/>
      </g>
      <g id="Grupo_3" data-name="Grupo 3" transform="translate(54.619 11.683)">
        <path id="Caminho_3" data-name="Caminho 3" d="M389.41,316.09v18.088H386.5V316.09c0-5.456-3.2-8.362-7.769-8.362-4.922,0-8.777,3.2-8.777,10.5v15.953h-2.906V316.09c0-5.456-2.965-8.362-7.472-8.362-4.8,0-9.074,3.2-9.074,10.5v15.953H347.6V305h2.906v5.515A10.272,10.272,0,0,1,359.935,305c4.27,0,7.591,2.076,9.133,5.812A10.637,10.637,0,0,1,378.794,305C384.962,305.059,389.41,308.973,389.41,316.09Z" transform="translate(-347.6 -305)" fill="#ff3e88"/>
      </g>
      <g id="Grupo_4" data-name="Grupo 4" transform="translate(101.707 11.683)">
        <path id="Caminho_4" data-name="Caminho 4" d="M468.81,316.09v18.147H465.9V316.09c0-5.456-3.2-8.362-7.769-8.362-4.922,0-8.777,3.2-8.777,10.556v15.953h-2.906V316.09c0-5.456-2.965-8.362-7.473-8.362-4.8,0-9.074,3.2-9.074,10.556v15.953H427V305.059h2.906v5.515a10.223,10.223,0,0,1,9.43-5.574c4.27,0,7.591,2.075,9.133,5.812A10.557,10.557,0,0,1,458.253,305C464.421,305,468.81,308.914,468.81,316.09Z" transform="translate(-427 -305)" fill="#ff3e88"/>
      </g>
      <g id="Grupo_5" data-name="Grupo 5" transform="translate(147.965 0.059)">
        <path id="Caminho_5" data-name="Caminho 5" d="M505,287.654a2.313,2.313,0,1,1,2.313,2.313A2.3,2.3,0,0,1,505,287.654Zm.89,9.37H508.8v29.237H505.89Z" transform="translate(-505 -285.4)" fill="#ff3e88"/>
      </g>
      <g id="Grupo_6" data-name="Grupo 6" transform="translate(154.725)">
        <path id="Caminho_6" data-name="Caminho 6" d="M524.11,299.889v18.977c0,5.16,2.728,5.278,8.718,4.744v2.609c-7.65,1.186-11.683-.712-11.683-7.354V299.889H516.4v-2.906h4.744V286.19l2.965-.89v11.683h8.718v2.847H524.11Z" transform="translate(-516.4 -285.3)" fill="#ff3e88"/>
      </g>
      <g id="Grupo_7" data-name="Grupo 7" transform="translate(178.091)">
        <path id="Caminho_7" data-name="Caminho 7" d="M587.409,285.3v40.92h-9.37V309.971H565.17V326.22H555.8V285.3h9.37v15.656h12.869V285.3Z" transform="translate(-555.8 -285.3)" fill="#ff3e88"/>
      </g>
      <g id="Grupo_8" data-name="Grupo 8" transform="translate(213.081 11.683)">
        <path id="Caminho_8" data-name="Caminho 8" d="M642.851,305v29.237h-8.777v-2.728c-1.6,2.135-4.507,3.558-8.362,3.558-5.871,0-10.912-4.211-10.912-12.1V305h8.777v16.665c0,3.617,2.253,5.337,5.1,5.337,3.2,0,5.456-1.9,5.456-5.99V305Z" transform="translate(-614.8 -305)" fill="#ff3e88"/>
      </g>
      <g id="Grupo_9" data-name="Grupo 9" transform="translate(244.631 0)">
        <path id="Caminho_9" data-name="Caminho 9" d="M699.432,311.631c0,8.718-6.286,15.419-13.937,15.419a11.125,11.125,0,0,1-8.718-3.558v2.728H668V285.3h8.777v14.411a11.125,11.125,0,0,1,8.718-3.558C693.086,296.212,699.432,302.913,699.432,311.631Zm-8.777,0c0-4.389-2.906-7.117-6.939-7.117s-6.938,2.728-6.938,7.117,2.906,7.117,6.938,7.117S690.654,316.02,690.654,311.631Z" transform="translate(-668 -285.3)" fill="#ff3e88"/>
      </g>
    </g>
    <g id="Grupo_16" data-name="Grupo 16" transform="translate(527.174 239.6)">
      <g id="Grupo_11" data-name="Grupo 11" transform="translate(0 24.967)">
        <circle id="Elipse_6" data-name="Elipse 6" cx="5.634" cy="5.634" r="5.634" fill="#ff3e88"/>
      </g>
      <g id="Grupo_15" data-name="Grupo 15" transform="translate(4.211)">
        <g id="Grupo_12" data-name="Grupo 12" transform="translate(1.661)">
          <circle id="Elipse_7" data-name="Elipse 7" cx="5.634" cy="5.634" r="5.634" fill="#ff3e88"/>
        </g>
        <g id="Grupo_13" data-name="Grupo 13" transform="translate(19.689 44.656)">
          <circle id="Elipse_8" data-name="Elipse 8" cx="5.634" cy="5.634" r="5.634" fill="#ff3e88"/>
        </g>
        <g id="Grupo_14" data-name="Grupo 14" transform="translate(0 5.397)">
          <path id="Caminho_10" data-name="Caminho 10" d="M745.193,294.542,720.7,274.379l6.049-25.679,2.491.534-5.753,24.2,23.306,19.155Z" transform="translate(-720.7 -248.7)" fill="#ff3e88"/>
        </g>
      </g>
    </g>
  </g>
</svg>
