<svg xmlns="http://www.w3.org/2000/svg" width="42.64" height="33.2" viewBox="0 0 42.64 33.2">
  <g id="logo-marcus-rossi" transform="translate(-138.86 -37.3)">
    <path id="Caminho_132" data-name="Caminho 132" d="M23.56,8.3H18.6l-5.89,9.641L6.82,8.3H1.86V30H6.82V17.383l5.611,9.207h.558L18.6,17.383V30h4.96ZM38.688,30H44.02L39.4,22.033a7.152,7.152,0,0,0,4-6.293A7.422,7.422,0,0,0,35.96,8.3H27.28V30h4.96V22.87H34.6ZM32.24,12.95h3.72a2.627,2.627,0,0,1,2.48,2.79,2.627,2.627,0,0,1-2.48,2.79H32.24Z" transform="translate(137 29)" fill="#272727"/>
    <line id="Linha_23" data-name="Linha 23" x2="42.5" transform="translate(139 67.5)" fill="none" stroke="#272727" stroke-width="6"/>
  </g>
</svg>
