<svg id="logo-summit-talks" xmlns="http://www.w3.org/2000/svg" width="122.837" height="19.161" viewBox="0 0 122.837 19.161">
  <g id="Grupo_54" data-name="Grupo 54">
    <g id="Grupo_53" data-name="Grupo 53">
      <path id="Caminho_36" data-name="Caminho 36" d="M10.676,31.692c0,2.9-2.522,4.124-5.256,4.124C2.9,35.816.99,34.873,0,32.823l3.276-1.862a2.064,2.064,0,0,0,2.145,1.485c.919,0,1.367-.283,1.367-.778,0-1.391-6.2-.66-6.2-5.02,0-2.757,2.333-4.148,4.949-4.148a5.532,5.532,0,0,1,4.926,2.71L7.235,26.954a1.817,1.817,0,0,0-1.7-1.108c-.66,0-1.061.259-1.061.707C4.478,27.968,10.676,27.025,10.676,31.692Z" transform="translate(0 -17.197)" fill="#c8c9d1"/>
      <path id="Caminho_37" data-name="Caminho 37" d="M59.39,24V36.609H55.62V35.431a4.274,4.274,0,0,1-3.606,1.532c-2.545,0-4.714-1.815-4.714-5.232V24h3.794v7.188a2.079,2.079,0,0,0,2.192,2.286c1.391,0,2.357-.8,2.357-2.593V24Z" transform="translate(-36.152 -18.344)" fill="#c8c9d1"/>
      <path id="Caminho_38" data-name="Caminho 38" d="M123.925,27.709v7.754h-3.794V28.039c0-1.273-.613-2.074-1.815-2.074-1.273,0-1.98.872-1.98,2.38v7.118h-3.794V28.039c0-1.273-.613-2.074-1.815-2.074-1.273,0-1.98.872-1.98,2.38v7.118H105V22.854h3.794v1.155a3.905,3.905,0,0,1,3.37-1.508,3.753,3.753,0,0,1,3.3,1.673,4.139,4.139,0,0,1,3.653-1.673C122.04,22.5,123.925,24.574,123.925,27.709Z" transform="translate(-80.253 -17.197)" fill="#c8c9d1"/>
      <path id="Caminho_39" data-name="Caminho 39" d="M209.925,27.709v7.754h-3.794V28.039c0-1.273-.613-2.074-1.815-2.074-1.273,0-1.98.872-1.98,2.38v7.118h-3.795V28.039c0-1.273-.613-2.074-1.815-2.074-1.273,0-1.98.872-1.98,2.38v7.118H191V22.854h3.794v1.155a3.905,3.905,0,0,1,3.37-1.508,3.753,3.753,0,0,1,3.3,1.673,4.14,4.14,0,0,1,3.653-1.673C208.04,22.5,209.925,24.574,209.925,27.709Z" transform="translate(-145.985 -17.197)" fill="#c8c9d1"/>
      <path id="Caminho_40" data-name="Caminho 40" d="M275.4,2.263a2.263,2.263,0,0,1,4.525,0,2.294,2.294,0,0,1-2.263,2.263A2.263,2.263,0,0,1,275.4,2.263Zm.377,3.394h3.794V18.265h-3.794Z" transform="translate(-210.493 0)" fill="#c8c9d1"/>
      <path id="Caminho_41" data-name="Caminho 41" d="M300.921,16.165v4.478c0,1.084.943,1.178,2.592,1.084v3.441c-4.949.495-6.387-.99-6.387-4.525V16.165H295.1V12.535h2.027V9.024L300.921,9v3.535h2.592v3.629Z" transform="translate(-225.55 -6.879)" fill="#c8c9d1"/>
    </g>
  </g>
  <g id="Grupo_56" data-name="Grupo 56" transform="translate(79.896 2.121)">
    <path id="Caminho_42" data-name="Caminho 42" d="M350.266,9H339v1.131h5.02V25.144h1.226V10.131h5.02Z" transform="translate(-339 -9)" fill="#c8c9d1"/>
    <rect id="Retângulo_11" data-name="Retângulo 11" width="1.131" height="16.144" transform="translate(22.79)" fill="#c8c9d1"/>
    <path id="Caminho_43" data-name="Caminho 43" d="M459.3,13.5h-1.6l-5.963,5.421V9H450.6V25.144h1.131V19.559l6.033,5.586h1.556l-6.363-5.916Z" transform="translate(-424.298 -9)" fill="#c8c9d1"/>
    <path id="Caminho_44" data-name="Caminho 44" d="M486.985,31.352c0-1.367,1.249-2.145,2.734-2.145a3,3,0,0,1,2.922,1.72l.966-.542a4.023,4.023,0,0,0-3.865-2.286c-2.333,0-3.889,1.438-3.865,3.229.047,4.36,6.905,2.074,6.905,5.161,0,1.438-1.343,2.145-2.946,2.145a3.255,3.255,0,0,1-3.347-2l-.99.566c.542,1.461,2.05,2.522,4.337,2.522,2.428,0,4.077-1.367,4.077-3.229C493.89,32.342,486.985,34.393,486.985,31.352Z" transform="translate(-450.973 -23.598)" fill="#c8c9d1"/>
    <g id="Grupo_55" data-name="Grupo 55" transform="translate(9.103 4.502)">
      <path id="Caminho_45" data-name="Caminho 45" d="M416.324,31.324a.023.023,0,0,1-.024-.024C416.3,31.324,416.3,31.324,416.324,31.324Z" transform="translate(-407.185 -30.546)" fill="#c8c9d1"/>
      <path id="Caminho_46" data-name="Caminho 46" d="M414.018,30.247c-.047-.024-.071-.024-.118-.047A.18.18,0,0,0,414.018,30.247Z" transform="translate(-405.351 -29.705)" fill="#c8c9d1"/>
      <path id="Caminho_47" data-name="Caminho 47" d="M412.636,29.694a1.622,1.622,0,0,1-.236-.094A.985.985,0,0,0,412.636,29.694Z" transform="translate(-404.204 -29.246)" fill="#c8c9d1"/>
      <path id="Caminho_48" data-name="Caminho 48" d="M403.247,28.1a6.26,6.26,0,0,1,2.121.354A6.966,6.966,0,0,0,403.2,28.1Z" transform="translate(-397.172 -28.1)" fill="#c8c9d1"/>
      <path id="Caminho_49" data-name="Caminho 49" d="M415.247,30.824c-.024,0-.024-.024-.047-.024A.083.083,0,0,0,415.247,30.824Z" transform="translate(-406.344 -30.164)" fill="#c8c9d1"/>
      <path id="Caminho_50" data-name="Caminho 50" d="M418.271,32.647c-.024-.024-.047-.047-.071-.047C418.224,32.6,418.247,32.624,418.271,32.647Z" transform="translate(-408.637 -31.539)" fill="#c8c9d1"/>
      <path id="Caminho_51" data-name="Caminho 51" d="M419.265,33.241c-.047-.047-.118-.094-.165-.141A.479.479,0,0,0,419.265,33.241Z" transform="translate(-409.325 -31.922)" fill="#c8c9d1"/>
      <path id="Caminho_52" data-name="Caminho 52" d="M417.323,32.024,417.3,32A.023.023,0,0,1,417.323,32.024Z" transform="translate(-407.949 -31.081)" fill="#c8c9d1"/>
      <path id="Caminho_53" data-name="Caminho 53" d="M412.4,29.643Z" transform="translate(-404.204 -29.266)" fill="#c8c9d1"/>
      <path id="Caminho_54" data-name="Caminho 54" d="M418.618,32.894a.413.413,0,0,1-.118-.094A.235.235,0,0,1,418.618,32.894Z" transform="translate(-408.867 -31.692)" fill="#c8c9d1"/>
      <path id="Caminho_55" data-name="Caminho 55" d="M417.589,32.218c-.071-.047-.118-.071-.189-.118A.828.828,0,0,1,417.589,32.218Z" transform="translate(-408.026 -31.157)" fill="#c8c9d1"/>
      <path id="Caminho_56" data-name="Caminho 56" d="M419.8,33.8Z" transform="translate(-409.86 -32.457)" fill="#c8c9d1"/>
      <path id="Caminho_57" data-name="Caminho 57" d="M415.612,31.018c-.071-.047-.141-.071-.212-.118C415.471,30.947,415.541,30.971,415.612,31.018Z" transform="translate(-406.497 -30.24)" fill="#c8c9d1"/>
      <path id="Caminho_58" data-name="Caminho 58" d="M416.612,31.618a.955.955,0,0,0-.212-.118A.955.955,0,0,1,416.612,31.618Z" transform="translate(-407.261 -30.699)" fill="#c8c9d1"/>
      <path id="Caminho_59" data-name="Caminho 59" d="M414.489,30.494a.7.7,0,0,1-.189-.094A1.4,1.4,0,0,1,414.489,30.494Z" transform="translate(-405.656 -29.858)" fill="#c8c9d1"/>
      <path id="Caminho_60" data-name="Caminho 60" d="M413.518,30.047c-.047-.024-.071-.024-.118-.047A.18.18,0,0,0,413.518,30.047Z" transform="translate(-404.968 -29.552)" fill="#c8c9d1"/>
      <path id="Caminho_61" data-name="Caminho 61" d="M377.643,33.921a7.065,7.065,0,0,0,1.155,3.653,5.211,5.211,0,0,0,4.431,2.168h.471a6.09,6.09,0,0,0,2.451-.519l3.182,1.414-.707-3.488a5.627,5.627,0,0,0,.99-3.229V33.8a5.477,5.477,0,0,0-2.027-4.36h-.023c-.047-.047-.118-.094-.165-.141a.413.413,0,0,1-.118-.094c-.024-.024-.047-.047-.071-.047-.071-.047-.118-.071-.189-.118L387,29.019a.953.953,0,0,0-.212-.118.023.023,0,0,1-.024-.024c-.071-.047-.141-.071-.212-.118-.024,0-.024-.024-.047-.024a.7.7,0,0,1-.189-.094c-.047-.024-.071-.024-.118-.047s-.071-.024-.118-.047a1.617,1.617,0,0,1-.236-.094h-.024a6.966,6.966,0,0,0-2.168-.354h-.047a6.047,6.047,0,0,0-4.808,2.168,5.142,5.142,0,0,0-1.155,3.04A2.663,2.663,0,0,0,377.643,33.921ZM378.8,33.8a4.829,4.829,0,0,1,9.639,0,4.989,4.989,0,0,1-.919,2.9l.306,1.343v.047l.165.9-.848-.354-.259-.118c-.306-.141-.66-.283-.966-.448a2.977,2.977,0,0,1-.283.165A4.851,4.851,0,0,1,378.8,33.8Z" transform="translate(-377.625 -28.1)" fill="#c8c9d1"/>
    </g>
  </g>
</svg>
