<?xml version="1.0" encoding="UTF-8" standalone="no"?>
<svg
   xmlns:dc="http://purl.org/dc/elements/1.1/"
   xmlns:cc="http://creativecommons.org/ns#"
   xmlns:rdf="http://www.w3.org/1999/02/22-rdf-syntax-ns#"
   xmlns:svg="http://www.w3.org/2000/svg"
   xmlns="http://www.w3.org/2000/svg"
   xmlns:sodipodi="http://sodipodi.sourceforge.net/DTD/sodipodi-0.dtd"
   xmlns:inkscape="http://www.inkscape.org/namespaces/inkscape"
   id="icon-logo"
   viewBox="0 0 130 30"
   version="1.1"
   sodipodi:docname="propmark.svg"
   inkscape:version="0.92.4 (5da689c313, 2019-01-14)">
  <metadata
     id="metadata13">
    <rdf:RDF>
      <cc:Work
         rdf:about="">
        <dc:format>image/svg+xml</dc:format>
        <dc:type
           rdf:resource="http://purl.org/dc/dcmitype/StillImage" />
        <dc:title></dc:title>
      </cc:Work>
    </rdf:RDF>
  </metadata>
  <defs
     id="defs11" />
  <sodipodi:namedview
     pagecolor="#ffffff"
     bordercolor="#666666"
     borderopacity="1"
     objecttolerance="10"
     gridtolerance="10"
     guidetolerance="10"
     inkscape:pageopacity="0"
     inkscape:pageshadow="2"
     inkscape:window-width="681"
     inkscape:window-height="480"
     id="namedview9"
     showgrid="false"
     inkscape:zoom="3.5910757"
     inkscape:cx="21.97668"
     inkscape:cy="15"
     inkscape:window-x="98"
     inkscape:window-y="63"
     inkscape:window-maximized="0"
     inkscape:current-layer="icon-logo" />
  <g
     fill="none"
     fill-rule="nonzero"
     id="g6">
    <path
       fill="#008730"
       d="M4.355 13.32h1.72c1.015 0 1.715-.309 2.099-.927.384-.619.576-1.8.576-3.545 0-1.602-.202-2.696-.605-3.282-.404-.586-1.146-.878-2.227-.878H4.355v8.632zM0 28.848V.605h6.387c2.383 0 4.111.645 5.185 1.934 1.074 1.29 1.612 3.366 1.612 6.23 0 2.67-.521 4.77-1.563 6.3-1.042 1.53-2.467 2.294-4.277 2.294H4.355v11.485H0zm19.847-24.16v8.203h1.719c1.002 0 1.699-.303 2.09-.909.39-.605.585-1.728.585-3.369 0-1.484-.205-2.51-.615-3.076-.41-.566-1.149-.85-2.217-.85h-1.562zm0 12.285v11.875H15.49V.605h6.387c2.396 0 4.128.645 5.195 1.934 1.068 1.29 1.602 3.366 1.602 6.23 0 1.771-.215 3.204-.645 4.297a5.708 5.708 0 0 1-2.109 2.657l3.203 13.125h-4.511l-2.696-11.875h-2.07zm20.062 5.644V6.855c0-.976-.19-1.709-.567-2.197-.377-.488-.937-.732-1.68-.732-.742 0-1.302.244-1.68.732-.377.488-.566 1.22-.566 2.197v15.762c0 .977.19 1.712.567 2.207.377.495.937.742 1.68.742.742 0 1.302-.247 1.68-.742.377-.495.566-1.23.566-2.207zM30.983 7.13c0-2.227.605-3.971 1.816-5.234S35.683 0 37.82 0c2.018 0 3.616.648 4.795 1.943 1.178 1.296 1.767 3.063 1.767 5.303V21.72c0 2.474-.582 4.381-1.748 5.722-1.165 1.342-2.822 2.012-4.97 2.012-2.175 0-3.832-.667-4.971-2.002-1.14-1.334-1.71-3.284-1.71-5.85V7.13zm20.98 6.191h1.718c1.016 0 1.716-.309 2.1-.927.384-.619.576-1.8.576-3.545 0-1.602-.202-2.696-.605-3.282-.404-.586-1.146-.878-2.227-.878h-1.563v8.632zm-4.356 15.528V.605h6.387c2.383 0 4.111.645 5.185 1.934 1.075 1.29 1.612 3.366 1.612 6.23 0 2.67-.521 4.77-1.563 6.3-1.042 1.53-2.467 2.294-4.277 2.294h-2.989v11.485h-4.355z"
       id="path2" />
    <path
       fill="#222"
       d="M63.138 28.848V.605h5.8L71.77 16.25c.118.625.205 1.296.264 2.012.059.716.088 1.458.088 2.226 0-.65.036-1.321.107-2.011.072-.69.173-1.42.303-2.188L75.247.605h5.879v28.243h-4.082V11.016c0-.508.029-1.192.088-2.051.058-.86.14-1.817.244-2.871-.065.377-.15.898-.254 1.562a68.892 68.892 0 0 1-.43 2.442l-3.554 18.75H70.97l-3.399-18.77c-.13-.755-.27-1.582-.42-2.48-.15-.899-.237-1.4-.263-1.504.09.963.162 1.865.214 2.705.052.84.078 1.579.078 2.217v17.832h-4.043zm19.73 0L87.515.605h5.683l4.63 28.243h-4.474l-.878-6.114h-4.395l-.937 6.114h-4.278zm5.76-10.118h3.321L90.465 6.934h-.274L88.63 18.73zm15.317-14.043v8.204h1.718c1.003 0 1.7-.303 2.09-.909.39-.605.586-1.728.586-3.369 0-1.484-.205-2.51-.615-3.076-.41-.566-1.15-.85-2.217-.85h-1.562zm0 12.286v11.875h-4.356V.605h6.387c2.396 0 4.127.645 5.195 1.934 1.068 1.29 1.602 3.366 1.602 6.23 0 1.771-.215 3.204-.645 4.297a5.708 5.708 0 0 1-2.11 2.657l3.204 13.125h-4.512l-2.695-11.875h-2.07zm11.663 11.875V.605h4.355V12.52c.13-.47.244-.85.342-1.143a7.03 7.03 0 0 1 .264-.693L124.885.605h4.317l-4.844 9.649 5.41 18.594h-4.531l-3.672-14.2-1.602 3.204v10.996h-4.355z"
       id="path4" />
  </g>
</svg>
