<svg id="Layer_1" data-name="Layer 1" xmlns="http://www.w3.org/2000/svg" viewBox="0 0 141.01 40.6"><defs><style>.cls-1{fill:#006cb1;}.cls-1,.cls-10,.cls-2,.cls-3,.cls-4,.cls-5,.cls-6,.cls-7,.cls-8,.cls-9{fill-rule:evenodd;}.cls-2{fill:#00adea;}.cls-3{fill:#009c3d;}.cls-4{fill:#c02239;}.cls-5{fill:#e51939;}.cls-6{fill:#72b73f;}.cls-7{fill:#b97bb3;}.cls-8{fill:#aa2886;}.cls-9{fill:#dae074;}.cls-10{fill:#f4a61d;}</style></defs><title>terra</title><path class="cls-1" d="M110.88,44.48c2.4.71,25.94.4,29.5-10.2C138,34,131,36.16,128.68,36.56a19,19,0,0,0-3.8.92,22.81,22.81,0,0,0-2.9,1.69,13.39,13.39,0,0,1-3.22,1.29c-1.33.4-2.59,1.27-4,1.7a13,13,0,0,0-3.11,1.07l-.8,1.25Z" transform="translate(-3 -4.13)"/><path class="cls-2" d="M97.9,34.09c1.14,6.24,12.82,11.15,14.68,10.59C113.22,44.49,125,39.39,126,39s1.91-.69,2.38-1.66c-3.8-.12-17.74-2.19-21-2.21s-6.53-1.38-9.69-1.4c.28-.06.55,1.44.7,1.5l-.5-1.1Z" transform="translate(-3 -4.13)"/><path class="cls-3" d="M108,17a14.91,14.91,0,0,1-.1,1.5,8.64,8.64,0,0,0,.66,2.4c.29,1-1,1.74-.81,2.75.49,2.66.6,5.79,2,8.23.53,1,.33,2.19.9,3.15s3.55,1.59,4.79,1.35c1.57-.31,1-.8-.52-3.6-.57-1-2.74-7.8-3.37-10.11-.23-.83-1.22-8-3.5-6.07V17Z" transform="translate(-3 -4.13)"/><path class="cls-4" d="M115.45,35.53c1.07,0,3.06-.05,4.13-.11,1.76-.11,8.24-1.06,9.45-2.17,6.57-6,.05-19.58-.07-21.43,2.19,0,5.11-.71,7.18,0,0,.72.44,1.16.64,1.79a14.19,14.19,0,0,1,.16,3.39,30.41,30.41,0,0,1,.09,4.58c-.18,2.11-.13,5.63-1.56,7.39a10.77,10.77,0,0,0-2.3,3.43,6.79,6.79,0,0,0-.42,2.49c0,1.66-.13,1.64,1.5,1.79a16,16,0,0,1,2.64.11c.6.69-.22.83-.7,1-1.73.65-3.92.37-5.74.37-3.23,0-14.43-1.39-15.53-1.58-.62-.11.49-.11,0-.36l.53-.71Z" transform="translate(-3 -4.13)"/><path class="cls-5" d="M141,11.52c-1.41,0-2.81,0-4.19.1-1.76.15-1.1-.65-.92.76,1.95,15.28-6.82,23.39-6.48,24.61.6,2.1,7.65.6,7.65.6,1.65.25,3.51-2.27,4.33-3.69a20.57,20.57,0,0,0,2.51-8.46c.54-6.56-2.17-13.7-2.9-13.82v-.1Z" transform="translate(-3 -4.13)"/><path class="cls-6" d="M108.28,7.63a15.64,15.64,0,0,0-.42,5.9c.17,1.15-.32,2,.12,3.08s.08,2.63,1.4,2.25c1-.3,3.7-4.14,11.39-6.14,2.46-.64,6.74,0,9.23-.62-.37-1.42-1.69-1.48-2.86-2.46-2.42-2-5.69-2.35-8.77-2.41a68.13,68.13,0,0,0-7,0c-1,.09-2,.41-3,.53l-.1-.1Z" transform="translate(-3 -4.13)"/><path class="cls-7" d="M126,4.43c3.58,0,8.61-.33,11.47,2.18,1.62,1.42,3.14,3,3.6,5-1.23.48-4.39.9-5.66.32-.62-.3-.81-1-1.32-1.55a7.32,7.32,0,0,0-1.3-.86c-.56-.39-.84-.89-1.38-1.29-.87-.65-2.05-.87-2.93-1.53s-1.8-1.11-2.68-1.79l.2-.5Z" transform="translate(-3 -4.13)"/><path class="cls-8" d="M103.09,8c3.47,0,19.66.08,25.17,3.45,2.13,1.31,5.29.89,7.68.55-.1-5.17-2.74-7.18-3.57-7.4-2.15-.55-11.79-.5-14.1-.5-5.93,0-14.68,1.55-18.58,4.7l3.4-.8Z" transform="translate(-3 -4.13)"/><path class="cls-9" d="M109.18,8c-2.72,0-6.78-.5-9.24.65-4.79,2.24-4.23,21.56-3,23.69a12.9,12.9,0,0,0,1.25,2.05c.67.77,1.55.72,2.64.87a46.91,46.91,0,0,0,8.62.5c.68,0,1.41.08,1.73-.57a5.72,5.72,0,0,0-.21-3.09,14.78,14.78,0,0,1-.79-2.7c-.19-1.06-.56-2.07-.79-3.13a45.81,45.81,0,0,1-.51-6.77,63.94,63.94,0,0,1,.29-11.9V8Z" transform="translate(-3 -4.13)"/><path class="cls-10" d="M14.61,42.5a16.2,16.2,0,0,1-1.92.4,13,13,0,0,1-1.84.16,5.55,5.55,0,0,1-4.29-1.6c-1-1.06-1.46-2.77-1.46-5.11V26.05H3V23.32H5.1V19l3.1-1.2v5.54h6.41v2.73H8.2v8.83c0,1,0,1.82.07,2.39a4.34,4.34,0,0,0,.45,1.6,2.27,2.27,0,0,0,1,1,4.54,4.54,0,0,0,1.94.32A5.67,5.67,0,0,0,13.25,40a9.58,9.58,0,0,0,1.18-.4h.18V42.5Z" transform="translate(-3 -4.13)"/><path class="cls-10" d="M33.47,33.36H19.88a8.61,8.61,0,0,0,.51,3.1,5.92,5.92,0,0,0,1.39,2.17,5.7,5.7,0,0,0,2,1.24,7.67,7.67,0,0,0,2.6.41,10,10,0,0,0,3.79-.78A9.13,9.13,0,0,0,32.94,38h.16v3.55a24.41,24.41,0,0,1-3.2,1.15,12.16,12.16,0,0,1-3.44.47,9.6,9.6,0,0,1-7.16-2.61q-2.57-2.6-2.57-7.4a10.92,10.92,0,0,1,2.47-7.53,8.26,8.26,0,0,1,6.49-2.79,7.24,7.24,0,0,1,5.76,2.29,9.48,9.48,0,0,1,2,6.5v1.77Zm-3-2.51a5.9,5.9,0,0,0-1.23-4,4.64,4.64,0,0,0-3.7-1.4,5.31,5.31,0,0,0-4,1.54,6,6,0,0,0-1.67,3.82Z" transform="translate(-3 -4.13)"/><path class="cls-10" d="M49.34,26.88h-.17a9.86,9.86,0,0,0-1.34-.26,13.6,13.6,0,0,0-1.55-.08,6,6,0,0,0-2.76.67A13.11,13.11,0,0,0,41,28.93V42.68H37.84V23.32H41v2.86A15.21,15.21,0,0,1,44.2,24a6.86,6.86,0,0,1,2.88-.65,11,11,0,0,1,1.17,0l1.09.17v3.35Z" transform="translate(-3 -4.13)"/><path class="cls-10" d="M63.43,26.88h-.17a9.86,9.86,0,0,0-1.34-.26,13.6,13.6,0,0,0-1.55-.08,6,6,0,0,0-2.76.67A13.11,13.11,0,0,0,55,28.93V42.68H51.93V23.32H55v2.86A15.21,15.21,0,0,1,58.29,24a6.86,6.86,0,0,1,2.88-.65,11,11,0,0,1,1.17,0l1.09.17v3.35Z" transform="translate(-3 -4.13)"/><path class="cls-10" d="M79.77,39.23l-3.09,1.55c-.28.2-.7.3-1.17.65a6.73,6.73,0,0,1-1.35.84,8.81,8.81,0,0,1-1.78.67,9,9,0,0,1-2.34.27,5.72,5.72,0,0,1-4.2-1.73,6,6,0,0,1-1.72-4.41A6.35,6.35,0,0,1,65,33.51a6.12,6.12,0,0,1,2.55-2.13,13.11,13.11,0,0,1,4-1.05c1.57-.19,3.25-.32,5-.42V29.4a4.06,4.06,0,0,0-.37-1.85,2.74,2.74,0,0,0-1.06-1.15,4,4,0,0,0-1.58-.54,11.88,11.88,0,0,0-1.92-.14,12.22,12.22,0,0,0-2.71.34,19.38,19.38,0,0,0-3.08,1h-.17V23.76c.61-.18,1.48-.37,2.62-.58a19.47,19.47,0,0,1,3.37-.31,14.7,14.7,0,0,1,3.39.34,6.39,6.39,0,0,1,2.5,1.15,5.16,5.16,0,0,1,1.58,2.06,8,8,0,0,1,.54,3.14l0,9.67Zm-3.15-1.3v-5.4c-.93.06-2,.15-3.31.26a16.51,16.51,0,0,0-3,.51,4.81,4.81,0,0,0-2.14,1.24,3.2,3.2,0,0,0-.81,2.32,3.19,3.19,0,0,0,.94,2.51,4.27,4.27,0,0,0,2.9.84,6.5,6.5,0,0,0,3-.67,12.57,12.57,0,0,0,2.48-1.61Z" transform="translate(-3 -4.13)"/></svg>